<svg xmlns="http://www.w3.org/2000/svg" viewBox="0 0 60 60">
  <defs>
    <style>
      .cls-1 {
        fill: none;
      }

      .cls-2 {
        fill: #fff;
        fill-rule: evenodd;
      }
    </style>
  </defs>
  <g id="Groupe_9" data-name="Groupe 9" transform="translate(-812 -2765)">
    <rect id="Rectangle_1457" data-name="Rectangle 1457" class="cls-1" width="60" height="60" transform="translate(812 2765)"/>
    <path id="Tracé_2" data-name="Tracé 2" class="cls-2" d="M57,50.667c22.667,0,35-18.667,35-35V14a27.1,27.1,0,0,0,6-6.333,27.671,27.671,0,0,1-7,2A12.969,12.969,0,0,0,96.333,3a30.574,30.574,0,0,1-7.667,3,11.9,11.9,0,0,0-9-4A12.524,12.524,0,0,0,67.333,14.333,6.5,6.5,0,0,0,67.667,17,34.463,34.463,0,0,1,42.333,4a12.765,12.765,0,0,0-1.667,6.333A13.244,13.244,0,0,0,46,20.667,11.237,11.237,0,0,1,40.333,19h0a12.182,12.182,0,0,0,10,12A10.276,10.276,0,0,1,47,31.333,5.672,5.672,0,0,1,44.667,31a12.628,12.628,0,0,0,11.667,8.667A25.167,25.167,0,0,1,41,45a9.229,9.229,0,0,1-3-.333,31.463,31.463,0,0,0,19,6" transform="translate(774 2767.636)"/>
  </g>
</svg>
