<svg xmlns="http://www.w3.org/2000/svg" viewBox="0 0 40 40">
  <defs>
    <style>
      .cls-1 {
        fill: #fff;
        fill-rule: evenodd;
      }

      .cls-2 {
        fill: none;
      }
    </style>
  </defs>
  <g id="Bouton_Instagram" data-name="Bouton Instagram" transform="translate(0)">
    <path id="Tracé_3" data-name="Tracé 3" class="cls-1" d="M16.667,2.963a51.1,51.1,0,0,1,6.667.185,8.589,8.589,0,0,1,3.148.556A6.5,6.5,0,0,1,29.63,6.852,8.589,8.589,0,0,1,30.185,10c0,1.667.185,2.222.185,6.667a51.1,51.1,0,0,1-.185,6.667,8.589,8.589,0,0,1-.556,3.148,6.5,6.5,0,0,1-3.148,3.148,8.589,8.589,0,0,1-3.148.556c-1.667,0-2.222.185-6.667.185A51.1,51.1,0,0,1,10,30.185a8.589,8.589,0,0,1-3.148-.556A6.5,6.5,0,0,1,3.7,26.481a8.589,8.589,0,0,1-.556-3.148c0-1.667-.185-2.222-.185-6.667A51.1,51.1,0,0,1,3.148,10,8.589,8.589,0,0,1,3.7,6.852,6.651,6.651,0,0,1,5,5,3.131,3.131,0,0,1,6.852,3.7,8.589,8.589,0,0,1,10,3.148a51.1,51.1,0,0,1,6.667-.185m0-2.963A54.717,54.717,0,0,0,9.815.185,11.433,11.433,0,0,0,5.741.926,7.249,7.249,0,0,0,2.778,2.778,7.249,7.249,0,0,0,.926,5.741,8.438,8.438,0,0,0,.185,9.815,54.717,54.717,0,0,0,0,16.667a54.717,54.717,0,0,0,.185,6.852,11.433,11.433,0,0,0,.741,4.074,7.249,7.249,0,0,0,1.852,2.963,7.25,7.25,0,0,0,2.963,1.852,11.433,11.433,0,0,0,4.074.741,54.714,54.714,0,0,0,6.852.185,54.714,54.714,0,0,0,6.852-.185,11.433,11.433,0,0,0,4.074-.741,7.769,7.769,0,0,0,4.815-4.815,11.433,11.433,0,0,0,.741-4.074c0-1.852.185-2.407.185-6.852a54.714,54.714,0,0,0-.185-6.852,11.433,11.433,0,0,0-.741-4.074,7.25,7.25,0,0,0-1.852-2.963A7.249,7.249,0,0,0,27.593.926,11.433,11.433,0,0,0,23.519.185,54.717,54.717,0,0,0,16.667,0m0,8.148a8.381,8.381,0,0,0-8.519,8.519,8.519,8.519,0,1,0,8.519-8.519m0,14.074a5.456,5.456,0,0,1-5.556-5.556,5.456,5.456,0,0,1,5.556-5.556,5.456,5.456,0,0,1,5.556,5.556,5.456,5.456,0,0,1-5.556,5.556M25.556,5.741a2.037,2.037,0,1,0,2.037,2.037,2.055,2.055,0,0,0-2.037-2.037" transform="translate(3.268 3.268)"/>
    <rect id="Rectangle_1459" data-name="Rectangle 1459" class="cls-2" width="40" height="40" transform="translate(0 0)"/>
  </g>
</svg>
